<svg width="68" height="45" viewBox="0 0 68 45" fill="none" xmlns="http://www.w3.org/2000/svg">
<path fill-rule="evenodd" clip-rule="evenodd" d="M22.6795 13.1206C21.7172 13.1206 20.9375 13.9051 20.9375 14.8732C20.9375 15.8422 21.7172 16.626 22.6795 16.626C23.6418 16.626 24.4215 15.8422 24.4215 14.8732C24.4215 13.9051 23.6418 13.1206 22.6795 13.1206V13.1206Z" fill="#FEFEFE"/>
<path fill-rule="evenodd" clip-rule="evenodd" d="M44.1547 13.0962C43.1924 13.0962 42.4121 13.88 42.4121 14.8494C42.4121 15.8184 43.1924 16.6022 44.1547 16.6022C45.1173 16.6022 45.8964 15.8184 45.8964 14.8494C45.8964 13.88 45.1173 13.0962 44.1547 13.0962" fill="#FEFEFE"/>
<path fill-rule="evenodd" clip-rule="evenodd" d="M22.9442 18.4858C20.961 18.4858 19.3532 16.8682 19.3532 14.8727C19.3532 12.8769 20.961 11.2594 22.9442 11.2594C24.9283 11.2594 26.5361 12.8769 26.5361 14.8727C26.5361 16.8682 24.9283 18.4858 22.9442 18.4858M22.9442 9.6582C20.0822 9.6582 17.7617 11.9933 17.7617 14.8727C17.7617 17.7543 20.0822 20.087 22.9442 20.087C25.8072 20.087 28.1276 17.7543 28.1276 14.8727C28.1276 11.9933 25.8072 9.6582 22.9442 9.6582" fill="#FEFEFE"/>
<mask id="mask0" mask-type="alpha" maskUnits="userSpaceOnUse" x="12" y="0" width="44" height="26">
<path fill-rule="evenodd" clip-rule="evenodd" d="M55.194 0.304199H12.2969L12.2969 25.6431H55.194V0.304199V0.304199Z" fill="white"/>
</mask>
<g mask="url(#mask0)">
<path fill-rule="evenodd" clip-rule="evenodd" d="M44.424 23.5479C39.6758 23.5479 35.827 19.6761 35.827 14.8988C35.827 10.1239 39.6758 6.25119 44.424 6.25119C49.171 6.25119 53.0192 10.1239 53.0192 14.8988C53.0192 19.6761 49.171 23.5479 44.424 23.5479V23.5479ZM33.7036 13.9702C33.6776 14.2755 33.6616 14.5841 33.6616 14.8964C33.6604 8.97126 28.8886 4.16599 22.9995 4.15808C26.0546 2.81964 29.8484 2.09751 33.664 2.09751C33.6718 2.09751 33.6797 2.09812 33.6876 2.09812C33.7078 2.09781 33.7278 2.09721 33.748 2.09721C37.5693 2.09721 41.0319 2.82177 44.0907 4.16538C38.3484 4.34234 33.7471 9.07737 33.7459 14.8964C33.7459 14.5841 33.7296 14.2758 33.7036 13.9702V13.9702ZM23.0678 23.5479C18.3202 23.5479 14.4714 19.6761 14.4714 14.8988C14.4714 10.1239 18.3202 6.25119 23.0678 6.25119C27.8154 6.25119 31.6645 10.1239 31.6645 14.8988C31.6645 19.6761 27.8154 23.5479 23.0678 23.5479V23.5479ZM48.0573 4.30737C44.4177 1.84363 39.4479 0.304199 33.748 0.304199C28.046 0.304199 22.7347 1.84241 19.0951 4.30737H12.2969C13.4054 5.61207 14.226 7.37771 14.4303 8.59058C13.1485 10.3617 12.3897 12.5406 12.3897 14.8988C12.3897 20.8327 17.1702 25.6432 23.0678 25.6432C26.414 25.6432 29.3996 24.0919 31.3574 21.6689C32.1562 22.6072 33.4778 24.4957 33.7459 25.0445C33.7459 25.0445 35.2794 22.7403 36.141 21.6786C38.0982 24.0967 41.0814 25.6432 44.424 25.6432C50.3207 25.6432 55.1021 20.8327 55.1021 14.8988C55.1021 12.5418 54.3414 10.365 53.0609 8.59393C53.264 7.38167 54.0845 5.6142 55.194 4.30737H48.0573Z" fill="#FEFEFE"/>
</g>
<path fill-rule="evenodd" clip-rule="evenodd" d="M44.4205 18.4619C42.4373 18.4619 40.8292 16.8443 40.8292 14.8488C40.8292 12.8524 42.4373 11.2345 44.4205 11.2345C46.404 11.2345 48.0121 12.8524 48.0121 14.8488C48.0121 16.8443 46.404 18.4619 44.4205 18.4619M44.4205 9.63428C41.5575 9.63428 39.2383 11.9682 39.2383 14.8488C39.2383 17.7279 41.5575 20.063 44.4205 20.063C47.2825 20.063 49.603 17.7279 49.603 14.8488C49.603 11.9682 47.2825 9.63428 44.4205 9.63428" fill="#FEFEFE"/>
<path fill-rule="evenodd" clip-rule="evenodd" d="M23.0846 4.15774C26.1241 2.82629 29.8937 2.10538 33.6881 2.09778C33.6802 2.09778 33.6727 2.09717 33.6645 2.09717C29.849 2.09717 26.0552 2.8193 23 4.15774C28.8891 4.16595 33.6609 8.97092 33.6621 14.8963C33.6621 14.5841 33.6781 14.2754 33.7041 13.9699C33.236 8.47835 28.663 4.16534 23.0846 4.15774" fill="#FEFEFE"/>
<path fill-rule="evenodd" clip-rule="evenodd" d="M66.4427 34.9759C66.6368 34.9759 66.6658 34.9759 66.7141 34.9592C66.8232 34.9261 66.8311 34.8476 66.8311 34.7692C66.8311 34.6694 66.7973 34.622 66.7296 34.5983C66.6764 34.5816 66.6344 34.5816 66.4427 34.5816V34.9759ZM66.4427 35.7859H66.1055V34.3584H66.6084C66.861 34.3584 67.1817 34.3891 67.1817 34.774C67.1817 34.9546 67.1031 35.0924 66.8846 35.1517L67.2246 35.7859H66.8523L66.5576 35.204H66.4427V35.7859Z" fill="#FEFEFE"/>
<path fill-rule="evenodd" clip-rule="evenodd" d="M66.6655 36.1758C66.0873 36.1758 65.6171 35.703 65.6171 35.121C65.6171 34.539 66.0873 34.0665 66.6655 34.0665C67.2439 34.0665 67.7142 34.539 67.7142 35.121C67.7142 35.703 67.2439 36.1758 66.6655 36.1758M66.6655 33.8242C65.9528 33.8242 65.375 34.4037 65.375 35.121C65.375 35.8386 65.9528 36.4205 66.6655 36.4205C67.3784 36.4205 67.9563 35.8386 67.9563 35.121C67.9563 34.4037 67.3784 33.8242 66.6655 33.8242" fill="#FEFEFE"/>
<path fill-rule="evenodd" clip-rule="evenodd" d="M4.49918 35.5746V34.3964H2.59156V32.6338L1.12457 33.0731V34.3964H0V35.5746H1.12457V39.3516C1.12457 41.0308 1.80638 41.8837 3.15218 41.8837C3.63513 41.8837 4.05522 41.8171 4.40066 41.6867L4.44267 41.67L4.37648 40.5085L4.30334 40.5298C4.1072 40.5866 3.8494 40.6152 3.5363 40.6152C3.20416 40.6152 2.96933 40.5155 2.81973 40.3112C2.66802 40.1023 2.59156 39.7483 2.59156 39.2637V35.5746H4.49918Z" fill="#FEFEFE"/>
<path fill-rule="evenodd" clip-rule="evenodd" d="M9.56712 34.2634C9.40966 34.2422 9.28605 34.2324 9.18934 34.2324C8.73903 34.2324 8.31622 34.3799 7.9333 34.6697C7.61385 34.9096 7.36059 35.2328 7.17775 35.6317L7.10159 34.3963H5.76758L5.77151 34.4605C5.8111 35.0522 5.83074 35.8217 5.83074 36.7482V41.7198H7.32704V37.8504C7.32704 37.145 7.50233 36.5961 7.84777 36.2161C8.1911 35.8406 8.60786 35.6484 9.08598 35.6484C9.26248 35.6484 9.41782 35.6627 9.54656 35.691L9.6197 35.7077V34.2704L9.56712 34.2634Z" fill="#FEFEFE"/>
<mask id="mask1" mask-type="alpha" maskUnits="userSpaceOnUse" x="0" y="0" width="68" height="45">
<path fill-rule="evenodd" clip-rule="evenodd" d="M0 44.7034H67.9556V0.304199H0V44.7034Z" fill="white"/>
</mask>
<g mask="url(#mask1)">
<path fill-rule="evenodd" clip-rule="evenodd" d="M10.9199 41.7197H12.4162V34.396H10.9199V41.7197Z" fill="#FEFEFE"/>
<path fill-rule="evenodd" clip-rule="evenodd" d="M11.6598 33.2085C11.9421 33.2085 12.1727 33.1158 12.3462 32.9376C12.5199 32.7573 12.6079 32.5338 12.6079 32.2702C12.6079 32.0112 12.5181 31.7904 12.3422 31.6122C12.1663 31.4365 11.9415 31.3462 11.6746 31.3462C11.3978 31.3462 11.1681 31.4365 10.9922 31.6122C10.8157 31.7904 10.7266 32.0112 10.7266 32.2702C10.7266 32.5338 10.8145 32.7573 10.988 32.9376C11.1618 33.1158 11.3878 33.2085 11.6598 33.2085" fill="#FEFEFE"/>
<path fill-rule="evenodd" clip-rule="evenodd" d="M16.0255 35.8405C16.3444 35.61 16.6986 35.4914 17.0791 35.4914C17.6808 35.4914 18.1498 35.7195 18.5128 36.1895C18.8773 36.6624 19.062 37.2705 19.062 37.9975C19.062 38.8099 18.8749 39.463 18.5065 39.9358C18.1381 40.4083 17.653 40.6388 17.0226 40.6388C16.5136 40.6388 16.0727 40.4487 15.7115 40.076C15.3498 39.7029 15.166 39.235 15.166 38.684V37.5222C15.166 37.3158 15.2304 37.04 15.3567 36.6979C15.4806 36.3632 15.7055 36.0755 16.0255 35.8405M19.7036 35.2537C19.1197 34.5531 18.3789 34.1968 17.5007 34.1968C16.4368 34.1968 15.6051 34.6173 15.0249 35.4461L14.9641 34.3607H13.6035L13.6102 34.4628C13.6473 35.0685 13.6661 35.8618 13.6661 36.8238V44.7031H15.166V40.9547C15.3739 41.228 15.639 41.4488 15.9563 41.6127C16.3549 41.817 16.7989 41.9191 17.2758 41.9191C18.2136 41.9191 19.0076 41.5534 19.635 40.8337C20.2597 40.1164 20.5761 39.1422 20.5761 37.9379C20.5761 36.8548 20.2826 35.9496 19.7036 35.2537" fill="#FEFEFE"/>
<path fill-rule="evenodd" clip-rule="evenodd" d="M25.1724 40.2636C24.8312 40.5771 24.4015 40.7364 23.8973 40.7364C23.545 40.7364 23.2594 40.6318 23.0475 40.4275C22.8365 40.2256 22.7299 39.9383 22.7299 39.5747C22.7299 39.1091 22.9405 38.7504 23.3745 38.4822C23.8031 38.2161 24.5804 38.0784 25.6853 38.0735V39.2043C25.6853 39.5962 25.513 39.9526 25.1724 40.2636V40.2636ZM27.2695 41.6486C27.1919 41.2187 27.1523 40.6413 27.1523 39.9334V37.2991C27.1523 36.3158 26.9066 35.5508 26.4227 35.0257C25.9367 34.4985 25.2114 34.2324 24.267 34.2324C23.3035 34.2324 22.4618 34.4556 21.7649 34.8977L21.7241 34.9214L22.0752 35.9476L22.1396 35.9072C22.699 35.5484 23.3449 35.3656 24.0596 35.3656C24.5879 35.3656 24.9899 35.5034 25.2549 35.7764C25.5212 36.0473 25.656 36.4344 25.656 36.926V36.9999C24.2316 37.0069 23.1288 37.2419 22.3793 37.7005C21.6095 38.1708 21.2188 38.8623 21.2188 39.7553C21.2188 40.3397 21.4312 40.8456 21.8504 41.2588C22.2696 41.6748 22.8338 41.8836 23.5274 41.8836C24.4646 41.8836 25.2132 41.5464 25.7545 40.8812L25.902 41.7198H27.2825L27.2695 41.6486Z" fill="#FEFEFE"/>
<path fill-rule="evenodd" clip-rule="evenodd" d="M33.2819 37.418V38.5631C33.2819 39.1831 33.0948 39.6841 32.7246 40.0548C32.3541 40.423 31.9267 40.6106 31.4537 40.6106C30.8251 40.6106 30.3494 40.3801 30.0001 39.9052C29.6492 39.4275 29.4712 38.8173 29.4712 38.0879C29.4712 37.311 29.6594 36.6722 30.0306 36.19C30.4008 35.7102 30.8759 35.4773 31.4822 35.4773C31.9733 35.4773 32.4 35.6554 32.7518 36.0093C33.1036 36.3633 33.2819 36.8385 33.2819 37.418V37.418ZM34.8462 41.7557L34.8377 41.6511C34.8012 41.1974 34.7824 40.5656 34.7824 39.7696V30.9663H33.2819V35.0948C33.0842 34.8573 32.8361 34.6603 32.5423 34.5058C32.1528 34.299 31.7058 34.1969 31.2147 34.1969C30.295 34.1969 29.5123 34.5724 28.8897 35.3134C28.2704 36.0498 27.957 37.0142 27.957 38.1782C27.957 39.2518 28.255 40.1545 28.8441 40.8554C29.4361 41.5608 30.1871 41.9196 31.0742 41.9196C31.6239 41.9196 32.1226 41.7888 32.5572 41.5276C32.9023 41.3209 33.1864 41.043 33.4046 40.7033L33.4862 41.7557H34.8462Z" fill="#FEFEFE"/>
<path fill-rule="evenodd" clip-rule="evenodd" d="M40.9891 34.3965C40.9891 34.3965 39.1211 38.2327 38.9881 38.6651C38.8189 38.1449 36.9623 34.3965 36.9623 34.3965H35.3379L38.9948 41.7199L42.5861 34.3965H40.9891Z" fill="#FEFEFE"/>
<path fill-rule="evenodd" clip-rule="evenodd" d="M43.3105 41.7197H44.8075V34.396H43.3105V41.7197Z" fill="#FEFEFE"/>
<path fill-rule="evenodd" clip-rule="evenodd" d="M44.0521 33.2085C44.3344 33.2085 44.5653 33.1158 44.7387 32.9376C44.9116 32.7573 45.0002 32.5338 45.0002 32.2702C45.0002 32.0112 44.9104 31.7904 44.7345 31.6122C44.5586 31.4365 44.3332 31.3462 44.0663 31.3462C43.7901 31.3462 43.5595 31.4365 43.3836 31.6122C43.2077 31.7904 43.1191 32.0112 43.1191 32.2702C43.1191 32.5338 43.2065 32.7573 43.38 32.9376C43.554 33.1158 43.7795 33.2085 44.0521 33.2085" fill="#FEFEFE"/>
<path fill-rule="evenodd" clip-rule="evenodd" d="M50.7111 38.3183C50.4052 37.9738 49.8969 37.6722 49.2 37.4204C48.6439 37.221 48.2736 37.0355 48.1008 36.8692C47.9324 36.7053 47.8493 36.5107 47.8493 36.2729C47.8493 36.0069 47.9466 35.7931 48.1461 35.6223C48.3468 35.4535 48.6242 35.3656 48.9721 35.3656C49.4868 35.3656 49.9933 35.5082 50.4808 35.7886L50.5433 35.8266L50.9235 34.7125L50.8812 34.6864C50.3711 34.3844 49.7446 34.2324 49.0174 34.2324C48.2307 34.2324 47.5924 34.4465 47.1161 34.8646C46.6392 35.2872 46.3978 35.8147 46.3978 36.4368C46.3978 37.3681 47.0729 38.0735 48.4054 38.5321C48.8929 38.6984 49.2377 38.8741 49.4306 39.0572C49.6194 39.2399 49.7098 39.4655 49.7098 39.7556C49.7098 40.0548 49.6001 40.2877 49.371 40.4655C49.1425 40.6437 48.808 40.7364 48.3806 40.7364C47.7738 40.7364 47.1781 40.5583 46.6078 40.2092L46.5413 40.1688L46.1777 41.347L46.2219 41.3707C46.8435 41.7103 47.5601 41.8839 48.351 41.8839C49.2145 41.8839 49.9075 41.6772 50.4116 41.2685C50.9199 40.8553 51.1774 40.3065 51.1774 39.6367C51.1774 39.1116 51.0202 38.6698 50.7111 38.3183" fill="#FEFEFE"/>
<path fill-rule="evenodd" clip-rule="evenodd" d="M55.4319 40.7364C54.855 40.7364 54.3675 40.4847 53.9834 39.9882C53.5953 39.4892 53.3989 38.8431 53.3989 38.0735C53.3989 37.3015 53.5878 36.6506 53.9601 36.1401C54.3273 35.6365 54.8368 35.3799 55.4748 35.3799C56.1016 35.3799 56.6045 35.6387 56.9666 36.1471C57.3353 36.6627 57.5215 37.2967 57.5215 38.0285C57.5215 38.8242 57.3184 39.4822 56.9198 39.9833C56.5238 40.4823 56.0234 40.7364 55.4319 40.7364M58.0413 35.2826C57.4003 34.5863 56.555 34.2324 55.5298 34.2324C54.502 34.2324 53.6376 34.5888 52.9609 35.2896C52.2861 35.9905 51.9434 36.9406 51.9434 38.1188C51.9434 39.2256 52.2755 40.1378 52.9295 40.8337C53.5847 41.5297 54.4264 41.8836 55.4319 41.8836C56.0769 41.8836 56.6849 41.7222 57.2392 41.4063C57.7953 41.0904 58.2338 40.6318 58.5415 40.0429C58.85 39.4561 59.0054 38.765 59.0054 37.9832C59.0054 36.8859 58.6808 35.9786 58.0413 35.2826" fill="#FEFEFE"/>
<path fill-rule="evenodd" clip-rule="evenodd" d="M64.0291 34.2634C63.8719 34.2422 63.748 34.2324 63.6513 34.2324C63.2019 34.2324 62.7788 34.3799 62.3956 34.6697C62.0764 34.9096 61.8226 35.2328 61.64 35.6317L61.5645 34.3963H60.2305L60.2335 34.4605C60.2725 35.0522 60.293 35.8217 60.293 36.7482V41.7198H61.7899V37.8504C61.7899 37.145 61.9643 36.5961 62.3104 36.2161C62.6537 35.8406 63.0705 35.6484 63.5486 35.6484C63.7245 35.6484 63.8807 35.6627 64.0095 35.691L64.0826 35.7077V34.2704L64.0291 34.2634Z" fill="#FEFEFE"/>
</g>
</svg>
