<?xml version="1.0" encoding="UTF-8"?>
<svg xmlns="http://www.w3.org/2000/svg" width="44" height="44" viewBox="0 0 44 44" fill="none">
  <path fill-rule="evenodd" clip-rule="evenodd" d="M30 17.5C29.4 17.8 28.8 17.9 28.1 18C28.8 17.6 29.3 17 29.5 16.2C28.9 16.6 28.2 16.8 27.4 17C26.8 16.4 25.9 16 25 16C23.3 16 21.8 17.5 21.8 19.3C21.8 19.6 21.8 19.8 21.9 20C19.2 19.9 16.7 18.6 15.1 16.6C14.8 17.1 14.7 17.6 14.7 18.3C14.7 19.4 15.3 20.4 16.2 21C15.7 21 15.2 20.8 14.7 20.6V20.6C14.7 22.2 15.8 23.5 17.3 23.8C17 23.9 16.7 23.9 16.4 23.9C16.2 23.9 16 23.9 15.8 23.8C16.2 25.1 17.4 26.1 18.9 26.1C17.8 27 16.4 27.5 14.8 27.5C14.5 27.5 14.3 27.5 14 27.5C15.5 28.4 17.2 29 19 29C25 29 28.3 24 28.3 19.7C28.3 19.6 28.3 19.4 28.3 19.3C29 18.8 29.6 18.2 30 17.5V17.5Z" fill="white"></path>
  <circle cx="22" cy="22" r="21.5" stroke="white"></circle>
</svg>
